/vscmnt/brussel_pixiu_data/_data_brussel/112/vsc11236/PredSimResults/SUBJ06opt3D/weighted-trackIG/worker_02.mot
version=1
nRows=10
nColumns=50
inDegrees=yes
endheader
                time	         pelvis_tilt	         pelvis_list	     pelvis_rotation	           pelvis_tx	           pelvis_ty	           pelvis_tz	       hip_flexion_r	     hip_adduction_r	      hip_rotation_r	        knee_angle_r	       ankle_angle_r	         mtp_angle_r	       hip_flexion_l	     hip_adduction_l	      hip_rotation_l	        knee_angle_l	       ankle_angle_l	         mtp_angle_l	    lumbar_extension	      lumbar_bending	     lumbar_rotation	 ercspn_r/activation	 intobl_r/activation	 extobl_r/activation	    abd_r/activation	    add_r/activation	hamstrings_r/activation	bifemsh_r/activation	glut_max_r/activation	iliopsoas_r/activation	rect_fem_r/activation	  vasti_r/activation	gastroc_r/activation	 soleus_r/activation	tib_ant_r/activation	 ercspn_l/activation	 intobl_l/activation	 extobl_l/activation	    abd_l/activation	    add_l/activation	hamstrings_l/activation	bifemsh_l/activation	glut_max_l/activation	iliopsoas_l/activation	rect_fem_l/activation	  vasti_l/activation	gastroc_l/activation	 soleus_l/activation	tib_ant_l/activation	
          1.23656736	         -5.98752056	         -1.00769880	          4.59542536	          1.37258977	          0.93075934	         -0.01040953	         32.35742796	         -0.84091574	         -7.35349172	         -9.03634523	          0.05952889	          0.22195462	         -9.75850784	         -0.68087329	         -7.15371299	        -11.56449408	          8.59695631	         33.54006123	         -5.44884062	         -0.21363104	         -8.19593253	          0.18281833	          0.15342422	          0.00999999	          0.00999999	          0.33714701	          0.05926768	          0.07855872	          0.01774281	          0.11534380	          0.01439225	          0.01149505	          0.00999999	          0.00999999	          0.49595072	          0.12778713	          0.00999999	          0.00999999	          0.09057215	          0.00999999	          0.00999999	          0.25280950	          0.01484582	          0.59504249	          0.01454664	          0.00999999	          0.23999019	          0.37956836	          0.02116046	
          1.24893304	         -6.08428061	         -0.94120430	          4.61116880	          1.38937907	          0.92895824	         -0.00959983	         32.46569426	         -0.73071752	         -7.43778655	        -10.68751554	         -0.23459003	          0.21883467	        -10.11237533	         -0.80397949	         -7.57114401	        -12.56603448	          7.62081631	         35.44258902	         -5.10891140	          0.12795690	         -8.67302916	          0.17559142	          0.12720746	          0.00999999	          0.00999999	          0.42242258	          0.06183473	          0.06513480	          0.10903512	          0.09563413	          0.01193293	          0.00999999	          0.01454666	          0.01754461	          0.50459633	          0.17150306	          0.00999999	          0.00999999	          0.07509540	          0.01000000	          0.01000000	          0.20961010	          0.01454663	          0.58646162	          0.01206095	          0.00999999	          0.20359465	          0.35671694	          0.01754461	
          1.26129871	         -6.15445140	         -0.92882512	          4.61330441	          1.40665457	          0.92734551	         -0.00875643	         32.34023069	         -0.65554141	         -7.31986927	        -12.23789364	         -0.49076266	          0.19606060	        -10.32619322	         -1.02254563	         -7.98001887	        -13.90327991	          6.51916477	         37.39185265	         -4.73629435	          0.53795927	         -9.10627961	          0.14558678	          0.10547055	          0.00999999	          0.03200941	          0.35024002	          0.06791338	          0.05400472	          0.09040346	          0.07929240	          0.00999999	          0.02560292	          0.01206096	          0.01454663	          0.55986311	          0.15620517	          0.00999999	          0.00999999	          0.06226327	          0.00999999	          0.01000000	          0.20372271	          0.01206093	          0.57762591	          0.01000001	          0.00999999	          0.16880489	          0.32892077	          0.01454663	
          1.27366439	         -6.20229147	         -0.95353400	          4.58815755	          1.42417264	          0.92600038	         -0.00777978	         32.04527300	         -0.56011273	         -7.33733521	        -13.52563166	         -0.88128026	          0.18240305	        -10.32222623	         -1.32962670	         -8.39384349	        -15.67644673	          5.25489075	         39.37918059	         -4.36136629	          0.98418566	         -9.48184628	          0.15019169	          0.08744800	          0.00999999	          0.07396643	          0.29039192	          0.07345862	          0.04477652	          0.09306507	          0.06574310	          0.00999999	          0.07414383	          0.01000001	          0.01206093	          0.61698178	          0.15949853	          0.00999999	          0.00999999	          0.05162387	          0.00999999	          0.00999999	          0.19214667	          0.00999999	          0.50962803	          0.00999999	          0.00999999	          0.13995991	          0.28941843	          0.01206093	
          1.28603006	         -6.23049560	         -1.00899906	          4.53570807	          1.44168800	          0.92505871	         -0.00667840	         31.65805768	         -0.44055177	         -7.47495406	        -14.68726473	         -1.17359036	          0.14340156	        -10.04075925	         -1.72599566	         -8.81899979	        -17.94317245	          3.76598165	         41.35447851	         -4.01093570	          1.45989427	         -9.79391915	          0.14729458	          0.07250509	          0.00999999	          0.12960462	          0.24956231	          0.07223105	          0.03712522	          0.13997029	          0.05450908	          0.00999999	          0.13525082	          0.00999999	          0.00999999	          0.65408193	          0.19981922	          0.00999999	          0.00999999	          0.04280251	          0.00999999	          0.00999999	          0.16660397	          0.00999999	          0.42254401	          0.00999999	          0.00999999	          0.11604389	          0.23996330	          0.00999999	
          1.29839573	         -6.24244130	         -1.10351044	          4.46211264	          1.45896609	          0.92473234	         -0.00546602	         31.22775998	         -0.27518520	         -7.63900102	        -15.85843485	         -0.93933991	          0.12436979	         -9.43826744	         -2.22789105	         -9.25234977	        -20.72198534	          2.00031505	         43.14320386	         -3.70315691	          1.97121726	        -10.04465099	          0.13772053	          0.06011559	          0.00999999	          0.18739394	          0.20691771	          0.07272724	          0.03078135	          0.13472178	          0.04519470	          0.00999999	          0.22492972	          0.00999999	          0.00999999	          0.60080024	          0.24590509	          0.00999999	          0.00999999	          0.03548852	          0.02324870	          0.08233262	          0.15176437	          0.00999999	          0.35034070	          0.00999999	          0.00999999	          0.09621459	          0.19895894	          0.00999999	
          1.31076141	         -6.24333223	         -1.23350125	          4.37754781	          1.47580832	          0.92523394	         -0.00416382	         30.72673275	         -0.04238542	         -7.71318044	        -16.97918707	         -0.04826613	          0.25227396	         -8.48663591	         -2.83745335	         -9.68955951	        -24.00347676	         -0.02530290	         44.36946595	         -3.44975351	          2.50857527	        -10.24400738	          0.12563373	          0.04984318	          0.00999999	          0.21925673	          0.19010127	          0.07004750	          0.02552151	          0.11558341	          0.03747193	          0.00999999	          0.28724494	          0.00999999	          0.00999999	          0.50281306	          0.26722719	          0.00999999	          0.00999999	          0.02942433	          0.14385731	          0.11925172	          0.13378952	          0.00999999	          0.29047531	          0.00999999	          0.00999999	          0.07977367	          0.16496131	          0.00999999	
          1.32312708	         -6.23796717	         -1.36259381	          4.28004431	          1.49210763	          0.92666775	         -0.00281021	         30.07669537	          0.23133792	         -7.70096138	        -17.82046772	          1.08009545	          0.58254533	         -7.18640131	         -3.51979479	        -10.14245248	        -27.77005853	         -2.15219401	         44.43657569	         -3.25752435	          3.02999259	        -10.39108268	          0.12463272	          0.04132610	          0.00999999	          0.22822181	          0.18506079	          0.07217994	          0.02116046	          0.09583279	          0.03106882	          0.00999999	          0.30005486	          0.00999999	          0.00999999	          0.41689357	          0.26714745	          0.00999999	          0.00999999	          0.02439637	          0.21669500	          0.13312975	          0.11092790	          0.00999999	          0.24083959	          0.00999999	          0.00999999	          0.06614214	          0.13677312	          0.00999999	
          1.33549275	         -6.22858015	         -1.45351175	          4.16641926	          1.50786668	          0.92895706	         -0.00145236	         29.23191688	          0.50271219	         -7.64596167	        -18.23885820	          2.07986928	          1.02856712	         -5.58369827	         -4.23331986	        -10.59612866	        -31.87940548	         -4.49971696	         43.38150024	         -3.12455112	          3.49660555	        -10.48112663	          0.11879534	          0.03426439	          0.00999999	          0.22209459	          0.17509305	          0.07619247	          0.01754461	          0.07945711	          0.02575985	          0.00999999	          0.28631610	          0.00999999	          0.00999999	          0.35284527	          0.26316703	          0.00999999	          0.00999999	          0.02022757	          0.24600132	          0.15732099	          0.11621114	          0.00999999	          0.19968549	          0.00999999	          0.00999999	          0.05483993	          0.11340165	          0.00999999	
          1.34785843	         -6.21479968	         -1.48034916	          4.03444888	          1.52311470	          0.93189863	         -0.00011917	         28.21325194	          0.73693776	         -7.55582203	        -18.26338438	          2.85613316	          1.49773498	         -3.74623314	         -4.94252021	        -11.02888651	        -36.17928071	         -6.96213482	         41.04987198	         -3.04910412	          3.88094126	        -10.51090545	          0.09849588	          0.02840938	          0.00999999	          0.20850402	          0.14964192	          0.07854339	          0.01454663	          0.06587967	          0.02135807	          0.00999999	          0.25009083	          0.00999999	          0.00999999	          0.31406868	          0.26262417	          0.01280731	          0.00999999	          0.01677113	          0.22360509	          0.16654683	          0.09635326	          0.00999999	          0.16556371	          0.00999999	          0.00999999	          0.04546901	          0.09402385	          0.07526734	
